<svg width="177" height="41" viewBox="0 0 177 41" fill="none" xmlns="http://www.w3.org/2000/svg">
<g clip-path="url(#clip0_185_219)">
<path d="M26.7242 39.1667C37.2367 39.1667 45.7587 30.5855 45.7587 20C45.7587 9.41458 37.2367 0.833374 26.7242 0.833374C16.2118 0.833374 7.68976 9.41458 7.68976 20C7.68976 30.5855 16.2118 39.1667 26.7242 39.1667Z" fill="#547441" stroke="white" stroke-width="2"/>
<path d="M2.01965 18.6983L7.11497 6.33813L9.42287 8.62747C9.92719 8.83827 11.5172 11.4349 18.9431 12.0652C20.8332 12.2257 25.1108 11.4451 31.5743 16.5616L26.4788 28.9218C24.9129 27.4623 22.3179 23.9568 19.344 23.2832C16.3701 22.6093 15.5564 23.149 12.3581 23.0197C9.15975 22.8903 4.90548 21.4502 2.01965 18.6983Z" fill="#547441" stroke="white" stroke-width="2"/>
<path d="M16.529 18.2803C17.3733 18.6332 18.3418 18.2301 18.6923 17.38C19.0427 16.5299 18.6424 15.5546 17.7981 15.2017C16.9538 14.8488 15.9853 15.2519 15.6348 16.1021C15.2844 16.9522 15.6847 17.9275 16.529 18.2803Z" fill="white"/>
</g>
<path d="M64.672 27.796C64.672 29.5667 64.224 30.8467 63.328 31.636C62.4533 32.404 61.0987 32.788 59.264 32.788H56.288V29.172H60.224C60.5013 29.172 60.64 29.0333 60.64 28.756V7.124H64.672V27.796ZM73.2608 32.788C71.6608 32.788 70.4874 32.4787 69.7408 31.86C69.0154 31.22 68.6528 30.0893 68.6528 28.468V25.588C68.6528 23.8813 69.0368 22.6973 69.8048 22.036C70.5941 21.3533 71.8954 21.012 73.7088 21.012H78.7328V16.564C78.7328 16.2867 78.5941 16.148 78.3168 16.148L69.8368 16.18V12.884H77.4528C79.2874 12.8627 80.6101 13.2147 81.4208 13.94C82.2314 14.644 82.6368 15.8813 82.6368 17.652V32.5H79.1488L78.8288 30.292C78.6581 31.124 78.2848 31.7533 77.7088 32.18C77.1541 32.5853 76.3541 32.788 75.3088 32.788H73.2608ZM78.7328 29.652V23.828H72.9088C72.6314 23.828 72.4928 23.9667 72.4928 24.244V29.204C72.4928 29.5027 72.6314 29.652 72.9088 29.652H78.7328ZM96.2128 12.628C97.8128 12.628 98.9861 12.948 99.7328 13.588C100.479 14.228 100.853 15.3587 100.853 16.98V32.5H96.9808V16.212C96.9808 15.9133 96.8421 15.764 96.5648 15.764H90.9648C90.6661 15.764 90.5168 15.9133 90.5168 16.212L90.5488 32.5H86.7088L86.6448 12.916H90.1008L90.3888 14.9C90.8154 13.3853 91.9994 12.628 93.9408 12.628H96.2128ZM118.656 5.556V32.5H115.232L114.848 30.26C114.677 31.092 114.304 31.7213 113.728 32.148C113.173 32.5747 112.373 32.788 111.328 32.788H109.088C107.488 32.788 106.314 32.4787 105.568 31.86C104.842 31.22 104.48 30.0893 104.48 28.468V17.364C104.48 15.6573 104.864 14.4733 105.632 13.812C106.421 13.1293 107.722 12.7987 109.536 12.82L114.752 12.852V5.556H118.656ZM108.736 29.652H114.336C114.613 29.652 114.752 29.5027 114.752 29.204V15.988L108.736 15.924C108.458 15.924 108.32 16.0733 108.32 16.372V29.204C108.32 29.5027 108.458 29.652 108.736 29.652ZM123.849 32.5V7.124L134.569 6.964C136.553 6.92133 138.046 7.36933 139.049 8.308C140.051 9.22533 140.553 10.5907 140.553 12.404V17.588C140.553 19.2947 140.051 20.6493 139.049 21.652C138.046 22.6333 136.553 23.124 134.569 23.124H127.881V32.5H123.849ZM135.913 10.484H127.881V19.636H135.913C136.254 19.636 136.425 19.4653 136.425 19.124V10.996C136.425 10.6547 136.254 10.484 135.913 10.484ZM147.448 32.788C145.848 32.788 144.675 32.4787 143.928 31.86C143.203 31.22 142.84 30.0893 142.84 28.468V25.588C142.84 23.8813 143.224 22.6973 143.992 22.036C144.782 21.3533 146.083 21.012 147.896 21.012H152.92V16.564C152.92 16.2867 152.782 16.148 152.504 16.148L144.024 16.18V12.884H151.64C153.475 12.8627 154.798 13.2147 155.608 13.94C156.419 14.644 156.824 15.8813 156.824 17.652V32.5H153.336L153.016 30.292C152.846 31.124 152.472 31.7533 151.896 32.18C151.342 32.5853 150.542 32.788 149.496 32.788H147.448ZM152.92 29.652V23.828H147.096C146.819 23.828 146.68 23.9667 146.68 24.244V29.204C146.68 29.5027 146.819 29.652 147.096 29.652H152.92ZM170.816 36.692V30.74C170.368 32.1053 169.227 32.788 167.392 32.788H165.12C163.52 32.788 162.347 32.4787 161.6 31.86C160.854 31.22 160.48 30.0893 160.48 28.468V12.916H164.352V29.204C164.352 29.5027 164.502 29.652 164.8 29.652H170.816L170.784 12.916H174.656L174.688 35.508C174.688 37.2787 174.251 38.5373 173.376 39.284C172.523 40.0307 171.136 40.404 169.216 40.404H161.12V37.14H170.4C170.678 37.14 170.816 36.9907 170.816 36.692Z" fill="#547441"/>
<defs>
<clipPath id="clip0_185_219">
<rect width="48" height="40" fill="white"/>
</clipPath>
</defs>
</svg>
